<svg height="32" viewBox="0 0 32 32" width="32" xmlns="http://www.w3.org/2000/svg" xmlns:xlink="http://www.w3.org/1999/xlink"><clipPath id="a"><path d="m306 666h32v32h-32z"/></clipPath><g clip-path="url(#a)" transform="translate(-306 -666)"><path d="m14 16a8 8 0 1 0 -8-8 8 8 0 0 0 8 8zm6 3.387v3.261a3.988 3.988 0 0 1 3 3.852v2a.987.987 0 0 1 -.289.7l-.648.648a.5.5 0 0 1 -.7 0l-.7-.711a.5.5 0 0 1 0-.7l.352-.359v-1.469a2.081 2.081 0 0 0 -1.664-2.086 2.012 2.012 0 0 0 -2.343 1.977v1.578l.359.359a.5.5 0 0 1 0 .7l-.711.711a.5.5 0 0 1 -.7 0l-.641-.648a.994.994 0 0 1 -.3-.7v-1.828a4.154 4.154 0 0 1 3-4.031v-3.6c-.281-.022-.562-.043-.849-.043h-6.333c-.276 0-.547.021-.818.041v4.123a3.5 3.5 0 1 1 -2 0v-3.779a10.828 10.828 0 0 0 -8.015 10.45 2.167 2.167 0 0 0 2.167 2.167h23.666a2.167 2.167 0 0 0 2.167-2.167 10.828 10.828 0 0 0 -8-10.446zm-12.484 7.113a1.5 1.5 0 1 0 1.5-1.5 1.5 1.5 0 0 0 -1.5 1.5z" fill="#0060ad" transform="translate(308 666)"/></g></svg>