<svg xmlns="http://www.w3.org/2000/svg" xmlns:xlink="http://www.w3.org/1999/xlink" width="32" height="32" viewBox="0 0 32 32"><defs><style>.a{fill:#bebebe;}.b{clip-path:url(#a);}.c{fill:#0060ad;}.d{fill:#fff;}</style><clipPath id="a"><rect class="a" width="32" height="32" transform="translate(27.593 2.374)"/></clipPath></defs><g class="b" transform="translate(-27.593 -2.374)"><path class="c" d="M24.889,6.222a2.667,2.667,0,0,0-2.667-2.667H19.556V1.778A1.783,1.783,0,0,0,17.778,0h0A1.783,1.783,0,0,0,16,1.778V3.556H8.889V1.778A1.783,1.783,0,0,0,7.111,0h0A1.783,1.783,0,0,0,5.333,1.778V3.556H2.667A2.667,2.667,0,0,0,0,6.222V8.889H24.889ZM24,12.444a8,8,0,1,0,8,8A7.993,7.993,0,0,0,24,12.444Zm2.667,8.889H23.653a.542.542,0,0,1-.542-.542v-3.9a.889.889,0,1,1,1.778,0v2.667h1.778a.889.889,0,0,1,0,1.778Zm-12.444-.889A9.778,9.778,0,0,1,24,10.667H0V25.778a2.667,2.667,0,0,0,2.667,2.667H18.389A9.76,9.76,0,0,1,14.222,20.444Z" transform="translate(27.593 4.151)"/><rect class="d" width="2" height="10" rx="1" transform="translate(33.593 18.374)"/><rect class="d" width="2" height="10" rx="1" transform="translate(39.593 22.374) rotate(90)"/></g></svg>