<svg xmlns="http://www.w3.org/2000/svg" xmlns:xlink="http://www.w3.org/1999/xlink" width="32" height="32" viewBox="0 0 32 32"><defs><style>.a{fill:#212121;}.b{clip-path:url(#a);}.c{fill:#0060ad;}</style><clipPath id="a"><rect class="a" width="32" height="32" transform="translate(306 666)"/></clipPath></defs><g class="b" transform="translate(-306 -666)"><path class="c" d="M11.2,12.8A6.4,6.4,0,1,0,4.8,6.4,6.4,6.4,0,0,0,11.2,12.8Zm2.533,2.4H8.667A8.667,8.667,0,0,0,0,23.867,1.733,1.733,0,0,0,1.733,25.6H20.667A1.733,1.733,0,0,0,22.4,23.867,8.667,8.667,0,0,0,13.733,15.2ZM30.8,10H28.4V7.6a1.2,1.2,0,1,0-2.4,0V10H23.6a1.2,1.2,0,1,0,0,2.4H26v2.4a1.2,1.2,0,1,0,2.4,0V12.4h2.4a1.2,1.2,0,0,0,0-2.4Z" transform="translate(306 669.2)"/></g></svg>