<svg xmlns="http://www.w3.org/2000/svg" width="32" height="32"><defs><clipPath id="a"><path transform="translate(306 666)" fill="#212121" d="M0 0h32v32H0z"/></clipPath></defs><g transform="translate(-306 -666)" clip-path="url(#a)"><path d="M322 682a8 8 0 10-8-8 8 8 0 008 8zm6 3.387v3.261a3.988 3.988 0 013 3.852v2a.987.987 0 01-.289.7l-.648.648a.5.5 0 01-.7 0l-.7-.711a.5.5 0 010-.7l.352-.359v-1.469a2.081 2.081 0 00-1.664-2.086 2.012 2.012 0 00-2.343 1.977v1.578l.359.359a.5.5 0 010 .7l-.711.711a.5.5 0 01-.7 0l-.641-.648a.994.994 0 01-.3-.7v-1.828a4.154 4.154 0 013-4.031v-3.6a10.818 10.818 0 00-.849-.043h-6.333c-.276 0-.547.021-.818.041v4.123a3.5 3.5 0 11-2 0v-3.779a10.828 10.828 0 00-8.015 10.45 2.167 2.167 0 002.167 2.167h23.666a2.167 2.167 0 002.167-2.167 10.828 10.828 0 00-8-10.446zm-12.484 7.113a1.5 1.5 0 101.5-1.5 1.5 1.5 0 00-1.5 1.5z" fill="#0060ad"/></g></svg>