<svg xmlns="http://www.w3.org/2000/svg" xmlns:xlink="http://www.w3.org/1999/xlink" width="20" height="20" viewBox="0 0 20 20"><defs><style>.a{fill:#bebebe;}.b{clip-path:url(#a);}.c{fill:#707070;}</style><clipPath id="a"><rect class="a" width="20" height="20" transform="translate(27.593 2.374)"/></clipPath></defs><g class="b" transform="translate(-27.593 -2.374)"><path class="c" d="M15.556,3.889a1.667,1.667,0,0,0-1.667-1.667H12.222V1.111A1.114,1.114,0,0,0,11.111,0h0A1.114,1.114,0,0,0,10,1.111V2.222H5.556V1.111A1.114,1.114,0,0,0,4.444,0h0A1.114,1.114,0,0,0,3.333,1.111V2.222H1.667A1.667,1.667,0,0,0,0,3.889V5.556H15.556ZM15,7.778a5,5,0,1,0,5,5A5,5,0,0,0,15,7.778Zm1.667,5.556H14.783a.339.339,0,0,1-.339-.339V10.556a.556.556,0,1,1,1.111,0v1.667h1.111a.556.556,0,1,1,0,1.111Zm-7.778-.556A6.111,6.111,0,0,1,15,6.667H0v9.444a1.667,1.667,0,0,0,1.667,1.667h9.826A6.1,6.1,0,0,1,8.889,12.778Z" transform="translate(27.593 3.485)"/></g></svg>