<svg height="24" width="24" xmlns="http://www.w3.org/2000/svg" xmlns:xlink="http://www.w3.org/1999/xlink"><clipPath id="a"><path d="m0 0h14v14h-14z" transform="translate(320.5 400.5)"/></clipPath><circle cx="12" cy="12" fill="#0060ad" r="12"/><g clip-path="url(#a)" transform="translate(-315.5 -395.5)"><path d="m332.691 409.476a7.06 7.06 0 0 1 -2.185-.343.947.947 0 0 0 -.951.2l-1.386 1.029a7.671 7.671 0 0 1 -3.436-3.391l1.016-1.328a.947.947 0 0 0 .238-.967 6.77 6.77 0 0 1 -.35-2.157.956.956 0 0 0 -.962-.948h-2.244a.956.956 0 0 0 -.962.948 11.154 11.154 0 0 0 11.222 11.058.956.956 0 0 0 .962-.948v-2.205a.956.956 0 0 0 -.962-.948z" fill="#fff"/></g></svg>