<svg xmlns="http://www.w3.org/2000/svg" xmlns:xlink="http://www.w3.org/1999/xlink" width="20" height="20" viewBox="0 0 20 20"><defs><style>.a{fill:#bebebe;}.b{clip-path:url(#a);}.c{fill:#b5020b;}</style><clipPath id="a"><rect class="a" width="20" height="20" transform="translate(322 363)"/></clipPath></defs><g class="b" transform="translate(-322 -363)"><g transform="translate(322 363)"><path class="c" d="M17.074,2.926a10,10,0,1,0,0,14.149A10.016,10.016,0,0,0,17.074,2.926ZM14.126,12.948a.834.834,0,1,1-1.179,1.179L10,11.179,7.054,14.126a.834.834,0,0,1-1.179-1.179L8.821,10,5.874,7.053A.834.834,0,0,1,7.053,5.874L10,8.821l2.947-2.947a.834.834,0,0,1,1.179,1.179L11.179,10Z"/></g></g></svg>