<svg xmlns="http://www.w3.org/2000/svg" xmlns:xlink="http://www.w3.org/1999/xlink" width="48" height="48" viewBox="0 0 48 48"><defs><style>.a{fill:#f0f0f0;}.b{clip-path:url(#a);}.c,.d{fill:#0060ad;}.c{opacity:0.4;}</style><clipPath id="a"><rect class="a" width="48" height="48" transform="translate(74 347)"/></clipPath></defs><g class="b" transform="translate(-74 -347)"><g transform="translate(72.5 347)"><path class="c" d="M39,13.5V21H33V13.5a7.5,7.5,0,0,0-15,0V21H12V13.5a13.5,13.5,0,0,1,27,0Z"/><path class="d" d="M10.5,21h30a6,6,0,0,1,6,6V42a6,6,0,0,1-6,6h-30a6,6,0,0,1-6-6V27A6,6,0,0,1,10.5,21Z"/></g></g></svg>