<svg height="24" width="24" xmlns="http://www.w3.org/2000/svg" xmlns:xlink="http://www.w3.org/1999/xlink"><clipPath id="a"><path d="m0 0h14v14h-14z" transform="translate(323 403)"/></clipPath><g transform="translate(-318 -398)"><circle cx="330" cy="410" fill="#0060ad" r="12"/><g clip-path="url(#a)"><path d="m332.1 410v-4.2a1.4 1.4 0 0 0 -1.4-1.4h-6.3a1.4 1.4 0 0 0 -1.4 1.4v4.2a1.4 1.4 0 0 0 1.4 1.4h.7v1.187a.213.213 0 0 0 .339.172l1.81-1.359h3.451a1.4 1.4 0 0 0 1.4-1.4zm3.5-2.8h-2.8v2.8a2.1 2.1 0 0 1 -2.1 2.1h-2.1v.7a1.4 1.4 0 0 0 1.4 1.4h2.751l1.81 1.359a.213.213 0 0 0 .339-.172v-1.187h.7a1.4 1.4 0 0 0 1.4-1.4v-4.2a1.4 1.4 0 0 0 -1.4-1.4z" fill="#fff"/></g></g></svg>