<svg xmlns="http://www.w3.org/2000/svg" xmlns:xlink="http://www.w3.org/1999/xlink" width="20" height="20" viewBox="0 0 20 20"><defs><style>.a{fill:#fff;stroke:#707070;}.b{clip-path:url(#a);}.c{fill:#212121;}</style><clipPath id="a"><rect class="a" width="20" height="20" transform="translate(414 198.5)"/></clipPath></defs><g class="b" transform="translate(-414 -198.5)"><path class="c" d="M18,2H2A2,2,0,0,0,0,4v8a2,2,0,0,0,2,2H18a2,2,0,0,0,2-2V4A2,2,0,0,0,18,2Zm0,10H2V4H18ZM3.75,11h2.5a.75.75,0,0,0,0-1.5h-.5v-4a.5.5,0,0,0-.5-.5H4.108a.75.75,0,0,0,0,1.5H4.25v3h-.5a.75.75,0,0,0,0,1.5ZM7.9,7.415A.75.75,0,0,0,8.915,7.1l.154-.3a.489.489,0,0,1,.395-.3.559.559,0,0,1,.406.942L7.7,9.735A.75.75,0,0,0,8.25,11H11a.75.75,0,0,0,0-1.5H9.99l.971-1.028A2.059,2.059,0,0,0,9.464,5,1.972,1.972,0,0,0,7.739,6.108L7.585,6.4A.75.75,0,0,0,7.9,7.415Z" transform="translate(414 200.5)"/></g></svg>