<svg xmlns="http://www.w3.org/2000/svg" xmlns:xlink="http://www.w3.org/1999/xlink" width="20" height="20" viewBox="0 0 20 20"><defs><style>.a{fill:#fff;stroke:#707070;}.b{clip-path:url(#a);}.c{fill:#212121;}</style><clipPath id="a"><rect class="a" width="20" height="20" transform="translate(414 198.5)"/></clipPath></defs><g class="b" transform="translate(-414 -198.5)"><path class="c" d="M0,18.125A1.875,1.875,0,0,0,1.875,20h13.75A1.875,1.875,0,0,0,17.5,18.125V7.5H0Zm12.5-7.5A.625.625,0,0,1,13.125,10h1.25a.625.625,0,0,1,.625.625v1.25a.625.625,0,0,1-.625.625h-1.25a.625.625,0,0,1-.625-.625Zm0,5A.625.625,0,0,1,13.125,15h1.25a.625.625,0,0,1,.625.625v1.25a.625.625,0,0,1-.625.625h-1.25a.625.625,0,0,1-.625-.625Zm-5-5A.625.625,0,0,1,8.125,10h1.25a.625.625,0,0,1,.625.625v1.25a.625.625,0,0,1-.625.625H8.125a.625.625,0,0,1-.625-.625Zm0,5A.625.625,0,0,1,8.125,15h1.25a.625.625,0,0,1,.625.625v1.25a.625.625,0,0,1-.625.625H8.125a.625.625,0,0,1-.625-.625Zm-5-5A.625.625,0,0,1,3.125,10h1.25A.625.625,0,0,1,5,10.625v1.25a.625.625,0,0,1-.625.625H3.125a.625.625,0,0,1-.625-.625Zm0,5A.625.625,0,0,1,3.125,15h1.25A.625.625,0,0,1,5,15.625v1.25a.625.625,0,0,1-.625.625H3.125a.625.625,0,0,1-.625-.625ZM15.625,2.5H13.75V1.25A1.254,1.254,0,0,0,12.5,0h0a1.254,1.254,0,0,0-1.25,1.25V2.5h-5V1.25A1.254,1.254,0,0,0,5,0H5A1.254,1.254,0,0,0,3.75,1.25V2.5H1.875A1.875,1.875,0,0,0,0,4.375V6.25H17.5V4.375A1.875,1.875,0,0,0,15.625,2.5Z" transform="translate(415.25 198.5)"/></g></svg>