<svg xmlns="http://www.w3.org/2000/svg" xmlns:xlink="http://www.w3.org/1999/xlink" width="20" height="20" viewBox="0 0 20 20"><defs><style>.a{fill:#fff;stroke:#707070;}.b{clip-path:url(#a);}.c{fill:#212121;}</style><clipPath id="a"><rect class="a" width="20" height="20" transform="translate(414 198.5)"/></clipPath></defs><g class="b" transform="translate(-414 -198.5)"><path class="c" d="M8.75,10a5,5,0,1,0-5-5A5,5,0,0,0,8.75,10Zm3.75,2.117v2.038a2.492,2.492,0,0,1,1.875,2.407v1.25a.617.617,0,0,1-.181.439l-.405.405a.309.309,0,0,1-.439,0l-.439-.444a.309.309,0,0,1,0-.439l.22-.225v-.918a1.3,1.3,0,0,0-1.04-1.3,1.257,1.257,0,0,0-1.46,1.235v.986l.225.225a.309.309,0,0,1,0,.439l-.444.444a.309.309,0,0,1-.439,0l-.4-.405a.621.621,0,0,1-.186-.439V16.67a2.6,2.6,0,0,1,1.875-2.52V11.9c-.176-.014-.352-.027-.531-.027H6.771c-.173,0-.342.013-.511.026v2.577a2.188,2.188,0,1,1-1.25,0V12.115A6.768,6.768,0,0,0,0,18.646,1.354,1.354,0,0,0,1.354,20H16.146A1.354,1.354,0,0,0,17.5,18.646,6.767,6.767,0,0,0,12.5,12.117ZM4.7,16.563a.938.938,0,1,0,.938-.937A.938.938,0,0,0,4.7,16.563Z" transform="translate(415.25 198.5)"/></g></svg>