<svg viewBox="0 0 175.66 468.12" xmlns="http://www.w3.org/2000/svg"><path d="m15.86 115.06-1.7-3.57s1.78-3.46 9.06-4.82 11.48-1.42 14.82.77v3.62z" fill="#7b8f96"/><path d="m46.44 73.4a2.12 2.12 0 0 0 -2-1.29 5.13 5.13 0 0 0 -2.39.7 15.1 15.1 0 0 0 -6 5.68c-.6 1-.64 1.34-1.61 1.79a8.74 8.74 0 0 0 -1 .52l-.56-2.5-.16-.74-.95-4.4-2-16.29c-.59-3-1.31-6.58-4.51-5.89-3.71.8-1 23-.95 23.34h-.14l-.47.1c-4.87-25.42-7.48-26.04-10.16-24.15-2.54 1.73 3.68 21.73 5.06 26.06l-.22.12-.26.15-.1.06c-5.89-18.59-9.84-23.34-13.02-20.88-2.2 1.71 4.8 17.27 7.91 23.86-.13.11-.28.23-.42.37l-.2.16c-3.62-6.04-9.61-19.17-12.13-14.76-1.3 2.28 5.76 14.09 8.73 18.87v.12c0 .39.1.87.18 1.41a57.56 57.56 0 0 0 1.13 5.68c.13.52.29 1.06.46 1.61 1.08 3.57 2.76 7.11 5.31 8.68a14.06 14.06 0 0 0 1.79.94l.82 5 2.18 13.11v.19l14.91-3-.44-2.13-1.88-9.18-1-5c.49-.52 4.74-4.32 6-8.59 1-3.2 1.63-6.2 3.15-9.17s3.27-5.76 4.67-8.76a3.66 3.66 0 0 0 .23-.63 2.08 2.08 0 0 0 .04-1.16z" fill="#fab29a"/><path d="m35.25 115.87-14.49 4.93-2.18-13.11c3.27-.16 10.33-.53 14.79-1z" fill="#cc8a79" opacity=".5"/><path d="m33.48 80.8s-8.88 1.72-9.48 9.2c0 0-2.9-6.46 8.88-11.67z" fill="#cc8a79" opacity=".5"/><path d="m27.27 73.85a38.7 38.7 0 0 0 -13.63 6.67 14.33 14.33 0 0 0 -4.57 5.29c-.08-.54-.13-1-.18-1.41v-.12a23.29 23.29 0 0 1 3.63-4.28c.14-.14.29-.26.42-.37a26.39 26.39 0 0 1 5.07-3l.59-.29a41.19 41.19 0 0 1 5.61-2h.14z" fill="#cc8a79" opacity=".5"/><path d="m175.54 161.59c-1.92-27.08-19.18-62.9-19.18-62.9-1.74-3.42-14.51-4.69-14.51-4.69l-6.24 5.81s-.45 36.86 9.43 35.62c.38 0 3.23 6.86 5.78 13.52 1.62 4.24 1.74 11.93 2.41 14.17a13.76 13.76 0 0 1 .35 1.41l2.34 67.37 19.51.64s.45-66.16.11-70.95z" fill="#fff"/><path d="m140.1 411c1.62 8.88 4.23 23.13 4.25 23.39s-.39 6.6-.61 10l-5.12-5-22.42 1-3.06 5.61-.3.66-.64-10.38s1-8.72 1.86-16.86l2.14-101 .06-2.93 1.64-75.91h-21.46l1.62 75.91v.83l2.18 103.15c.89 8.14 1.88 16.86 1.88 16.86l-.66 10.38-.3-.66-3.06-5.61-22.4-1-5.12 5c-.22-3.4-.63-9.71-.61-10s2.63-14.55 4.25-23.44l-1.22-93.28-.06-4.4-1-78.89-.14-10.58a22 22 0 0 1 -.76-3.06c-1-5.46-1.16-14.17-1.18-19.73 0-3.1 0-5.23 0-5.23h74.62s0 2.13 0 5.23c0 5.56-.19 14.27-1.18 19.73a20.66 20.66 0 0 1 -.76 3.06l-.14 10.58-1.09 83.29v3.54z" fill="#2a4c64"/><path d="m144.51 201.06c0 5.56-.19 14.27-1.18 19.73a20.66 20.66 0 0 1 -.76 3.06l-.14 10.58-1.09 83.29v3.54l-25.1-2.91.06-2.93 1.64-75.91h-21.5l1.62 75.91v.83l-25.15-2.93-1-78.89-.14-10.58a22 22 0 0 1 -.76-3.06c-1-5.46-1.16-14.17-1.18-19.73 0-3.1 0-5.23 0-5.23h74.62s.06 2.17.06 5.23z" fill="#153246" opacity=".5"/><path d="m86.45 218.15h41.31v87.9h-41.31z" fill="#979899"/><path d="m127.76 218.15v25c-11.76 5.75-29.35 10.27-41.31 12.93v-37.93z" fill="#b9babc"/><path d="m69.51 138.81-1.08-.08c-.47 1.57-1.14 3.73-2 6.2-1.09 3.29-2.46 7.16-4 11.1-4.91 12.34-11.43 23.89-23.12 23.25-12.81-.7-25.15-67.79-25.15-67.79 8.91-.27 23.88-4 23.88-4 1.6 2.09 4.27 34.14 4.27 34.14l1.45-4.6 11.58-36.81c1.42-3.56 14-5.94 14-5.94l6.74 5.23s3.42 39.64-6.57 39.3z" fill="#fff"/><path d="m147 127.22a113.82 113.82 0 0 0 1.91-12.8 108.63 108.63 0 0 0 0-18.64 31.47 31.47 0 0 1 -10.31-3.18c-6.09-2.9-14-8.42-21.49-8.86h-20.04c-7.45.44-15.4 6-21.49 8.86a31.49 31.49 0 0 1 -10.32 3.18 108.54 108.54 0 0 0 0 18.64 113.82 113.82 0 0 0 1.91 12.8c.26 4.08.59 9.56.83 15s.38 10.78.27 14.63c-.15 5.7-.54 18.07-.9 29s-.66 20.44-.66 20.44 5 .45 11.94.91 15.66.95 23.1 1h10.64c7.45-.09 16.21-.57 23.11-1s11.94-.91 11.94-.91-.32-9.51-.67-20.44-.74-23.31-.9-29c-.1-3.85 0-9.21.28-14.63s.59-10.92.85-15z" fill="#67aec1"/><path d="m114.83 69.05v22.32a11.52 11.52 0 0 1 -.16 1.66h-15.1a9.57 9.57 0 0 1 -.19-1.76v-22.22z" fill="#fab29a"/><path d="m114.83 69.05v13.23a56.47 56.47 0 0 1 -15.45-3.79v-9.44z" fill="#cc8a79" opacity=".5"/><path d="m149.58 213.83h-16.32" fill="none" stroke="#d9d9db" stroke-linecap="round" stroke-miterlimit="10"/><path d="m116.42 202.36-3.68 8.61-5.64 12.71-5.64-12.71-3.67-8.61 5.54-97.05.24-4.27.51-1.64h6.04l.52 1.64.18 3.19z" fill="#086a7d"/><path d="m110.82 104.23a29 29 0 0 1 -7.49 1.08l.24-4.27.51-1.64h6l.52 1.64z" fill="#086a7d" opacity=".5"/><path d="m108.5 90.1c0 .15-.73 0-1.2-.06v-.04h-.2-.19c-.47.09-1.2.21-1.2.06l-5.39 5.61 3.06 7.07h7.45l3-7.07z" fill="#086a7d"/><path d="m122.18 84.13-7.18-3.08-7.85 8.79-7.84-8.79-7.31 3.08 6.85 14.39c1.55-3.11 7.62-7.55 8.22-8.45.61.9 6.83 5.49 8.38 8.59z" fill="#9fd5e1"/><path d="m154 308.6h-41.16a22.59 22.59 0 0 1 -4.94-9.6 21.42 21.42 0 0 1 -.41-2.25h-.79c-.09.76-.22 1.5-.37 2.19a22.69 22.69 0 0 1 -5 9.62h-41.15s-.37-89.27 6-112.06c0 0-.91-17.95-1.71-38.76-.18-4.36-.33-8.85-.48-13.34-.77-22.73-1.16-45.14 0-49 0 0 3.26-1.54 7.76-3.38.81-.33 1.64-.68 2.51-1 2.12-.85 4.44-1.7 6.74-2.47 1.56-.81 3.24-1.66 4.75-2.38.71-.35 1.39-.66 2-.93s1.27-.57 1.76-.74a14.43 14.43 0 0 1 3.07-.64c-.36 1.24-1.2 3.65-2.16 6.94a100.13 100.13 0 0 0 -3.7 18.89c-.58 7.31 4.08 20.31 8.9 31.31 1.23 2.84 2.58 5.56 3.92 8a127.36 127.36 0 0 0 6.79 11.21c.12.19.25.36.34.51l.43.59s.3-.41.8-1.15c.88-1.29 2.41-3.62 4.19-6.61a118.08 118.08 0 0 0 6.5-12.58c4.82-11.08 9.48-24 8.82-31.35a101.75 101.75 0 0 0 -3.7-18.89c-1-3.29-1.8-5.7-2.17-6.94a14.41 14.41 0 0 1 3.08.64c1.8.66 5.4 2.46 8.5 4 2.3.77 4.6 1.62 6.74 2.47.85.33 1.7.68 2.49 1 4.5 1.84 7.76 3.38 7.76 3.38 1.62 5.17.41 43.05-.75 70.93-.27 6.55-.54 12.55-.76 17.43-.36 7.78-.61 12.77-.61 12.77 6.41 22.92 6.01 112.19 6.01 112.19z" fill="#fff"/><path d="m106.56 160.79c-19-7.53-31.7-27-31.7-27l7.74-4.46-9.85-4.47a179.88 179.88 0 0 1 5.91-24.53 60.35 60.35 0 0 1 7.07-14.2c.7-.35 1.38-.66 2-.93s1.28-.57 1.76-.74a14.71 14.71 0 0 1 3.07-.64c-.36 1.24-1.19 3.65-2.15 6.94a98.56 98.56 0 0 0 -3.7 18.89c-.71 7.35 3.98 20.35 8.79 31.35a124.82 124.82 0 0 0 11.06 19.79z" fill="#a7c3d1"/><path d="m107.65 160.79c19.06-7.53 31.7-27 31.7-27l-7.74-4.46 9.85-4.47a179.88 179.88 0 0 0 -5.91-24.53 60.35 60.35 0 0 0 -7.07-14.2c-.7-.35-1.38-.66-2-.93s-1.27-.57-1.76-.74a14.57 14.57 0 0 0 -3.07-.64c.36 1.24 1.19 3.65 2.15 6.94a98.56 98.56 0 0 1 3.7 18.89c.67 7.34-4 20.27-8.81 31.35a124.82 124.82 0 0 1 -11.04 19.79z" fill="#a7c3d1"/><path d="m77.64 437.71-9.84 9.58-9.05 14.04v6.3h45.39v-14.17l-5.77-15.49z" fill="#3f1908"/><rect fill="#8d5b46" height="8.07" rx="1.33" width="38.38" x="66.91" y="460.05"/><path d="m71.45 442.87s-.34-1.2 1.25-2.85c.79-.81 9.65-1 12 .52 1.87 1.25-.25 4-.25 4z" fill="#5c3a2a"/><path d="m69.6 445.16s-.38-1.2 1.37-2.84c.86-.81 10.55-1 13.08.53 2 1.25-.28 4-.28 4z" fill="#754b39"/><path d="m67.68 447.67s-.38-1.11 1.41-2.89c1-1 11.46-1 14.26.42 2.27 1.18-.17 4.06-.17 4.06z" fill="#8d5b46"/><path d="m57 461.33h3.74s32.66-.18 32.47 0-1.32-10.41-1.32-10.41l-7.11-3.76-16.19-.89-6.76 5.63z" fill="#4f291d"/><rect fill="#ad7a5a" height="8.07" rx="1.33" width="38.38" x="56.09" y="460.05"/><path d="m73.5 448.77c.38.93-1.11 2.42-3.34 3.33s-4.34.89-4.72 0 1.12-2.42 3.34-3.33 4.34-.93 4.72 0z" fill="#8d5b46"/><path d="m136.69 437.71 9.84 9.58 9.05 14.04v6.3h-45.4v-14.17l5.77-15.49z" fill="#3f1908"/><rect fill="#8d5b46" height="8.07" rx="1.33" transform="matrix(-1 0 0 -1 256.44 928.17)" width="38.38" x="109.03" y="460.05"/><path d="m142.88 442.87s.34-1.2-1.26-2.85c-.78-.81-9.64-1-12 .52-1.87 1.25.25 4 .25 4z" fill="#5c3a2a"/><path d="m144.73 445.16s.37-1.2-1.38-2.84c-.85-.81-10.54-1-13.07.53-2.05 1.25.27 4 .27 4z" fill="#754b39"/><path d="m146.65 447.67s.38-1.11-1.41-2.89c-1-1-11.47-1-14.27.42-2.27 1.18.17 4.06.17 4.06z" fill="#8d5b46"/><path d="m157.28 461.33h-3.74s-32.65-.18-32.47 0 1.33-10.41 1.33-10.41l7.1-3.76 16.2-.89 6.76 5.63z" fill="#4f291d"/><rect fill="#ad7a5a" height="8.07" rx="1.33" transform="matrix(-1 0 0 -1 278.09 928.17)" width="38.38" x="119.86" y="460.05"/><path d="m140.82 448.77c-.38.93 1.12 2.42 3.35 3.33s4.33.89 4.71 0-1.11-2.42-3.34-3.33-4.34-.93-4.72 0z" fill="#8d5b46"/><path d="m107.1 161.38c-13.46-8.06-28.66-28.38-28.66-28.38l7.69-4.53-11.03-5.47s-.19-2 3-16.53a58.13 58.13 0 0 1 9.77-21.23c.67-.31 1.27-.57 1.76-.74a14.43 14.43 0 0 1 3.07-.64c-.36 1.24-1.2 3.65-2.16 6.94a100.13 100.13 0 0 0 -3.7 18.89c-.7 7.31 3.96 20.31 8.78 31.31a123.75 123.75 0 0 0 11.48 20.38z" fill="#fff"/><path d="m107.1 161.38c13.46-8.06 28.65-28.34 28.65-28.34l-7.68-4.53 11-5.51s.19-2-3-16.53a58.14 58.14 0 0 0 -9.76-21.23c-.68-.31-1.28-.57-1.76-.74a14.71 14.71 0 0 0 -3.07-.64c.36 1.24 1.19 3.65 2.15 6.94a98.56 98.56 0 0 1 3.7 18.89c.66 7.34-4 20.27-8.81 31.35a123.75 123.75 0 0 1 -11.42 20.34z" fill="#fff"/><g fill="#a7c3d1"><path d="m107.9 160.23v138.77a21.42 21.42 0 0 1 -.41-2.25h-.79c-.09.76-.22 1.5-.37 2.19v-138.66c.12.19.25.36.34.51l.43.59s.3-.38.8-1.15z"/><path d="m114.73 172.41a2.23 2.23 0 1 1 -2.23-2.23 2.23 2.23 0 0 1 2.23 2.23z"/><path d="m114.73 188.68a2.23 2.23 0 1 1 -2.23-2.23 2.23 2.23 0 0 1 2.23 2.23z"/><path d="m114.73 205a2.23 2.23 0 1 1 -2.23-2.23 2.23 2.23 0 0 1 2.23 2.23z"/><path d="m114.73 221.22a2.23 2.23 0 1 1 -2.23-2.22 2.23 2.23 0 0 1 2.23 2.22z"/><path d="m114.73 237.49a2.23 2.23 0 1 1 -2.23-2.23 2.23 2.23 0 0 1 2.23 2.23z"/><path d="m114.73 253.76a2.23 2.23 0 1 1 -2.23-2.23 2.23 2.23 0 0 1 2.23 2.23z"/></g><path d="m99.38 78.46c-14.87 4.09-26.35 19.68-28.21 39h2.83c1.8-17.51 12-31.7 25.34-35.72z" fill="#280600"/><path d="m114.82 78.46v3.26c14.68 4.43 25.64 21.23 25.64 41.22h2.86c0-21.78-12.23-40.02-28.5-44.48z" fill="#280600"/><path d="m132.86 135.27a9 9 0 1 0 10.87-6.27 8.87 8.87 0 0 0 -10.87 6.27z" fill="#94abb3"/><path d="m139.99 122.43h3.78v7.9h-3.78z" fill="#94abb3" transform="matrix(.99953891 .03036406 -.03036406 .99953891 3.91 -4.25)"/><path d="m134 135.56a7.79 7.79 0 1 0 9.45-5.44 7.72 7.72 0 0 0 -9.45 5.44z" fill="#bad0d8"/><path d="m138 137.4a3.5 3.5 0 1 0 3.6-3.31 3.46 3.46 0 0 0 -3.6 3.31z" fill="#5c96c2"/><path d="m88.63 159.31a5.41 5.41 0 0 1 -4.11 1.93h-6.93v-2.86h6.93a2.63 2.63 0 0 0 2-1 4 4 0 0 0 .87-3.13l-3.69-25.9a4.3 4.3 0 0 0 -.09-.47c-.84-4.82-4.44-8.27-8.67-8.27h-4c-4.23 0-7.83 3.45-8.68 8.27 0 .16 0 .32-.08.47l-3.64 25.94a4 4 0 0 0 .87 3.13 2.61 2.61 0 0 0 2 1h6.91v2.86h-6.96a5.41 5.41 0 0 1 -4.11-1.93 6.81 6.81 0 0 1 -1.55-5.42l3.64-25.93a.17.17 0 0 1 0-.07c.94-6.45 5.81-11.14 11.59-11.14h4c5.78 0 10.65 4.69 11.58 11.14a.1.1 0 0 1 0 .07l3.64 25.94a6.84 6.84 0 0 1 -1.52 5.37z" fill="#94abb3"/><path d="m74.94 116.35h-4c-6 0-11 4.82-12 11.47a.41.41 0 0 0 .1.32.39.39 0 0 0 .29.13h2.91a.38.38 0 0 0 .39-.32c.81-4.61 4.29-8 8.29-8h4c4 0 7.48 3.34 8.29 8a.38.38 0 0 0 .38.32h2.91a.4.4 0 0 0 .3-.13.37.37 0 0 0 .09-.32c-.89-6.65-5.97-11.47-11.95-11.47z" fill="#280600"/><path d="m68.34 162.17a1.92 1.92 0 0 1 -1.91-1.91v-1a1.92 1.92 0 0 1 1.91-1.91 1.92 1.92 0 0 1 1.91 1.91v1a1.92 1.92 0 0 1 -1.91 1.91z" fill="#280600"/><path d="m77.54 162.17a1.92 1.92 0 0 1 -1.91-1.91v-1a1.92 1.92 0 0 1 1.91-1.91 1.92 1.92 0 0 1 1.91 1.91v1a1.92 1.92 0 0 1 -1.91 1.91z" fill="#280600"/><path d="m69.58 208.88h20.47v1.57h-20.47z" fill="#a7c3d1"/><path d="m124.16 208.88h20.47v1.57h-20.47z" fill="#a7c3d1"/><path d="m133.73 19.81c-.73-5.81-6.94-15.35-16.91-16.81a46.07 46.07 0 0 0 -10-.38 46 46 0 0 0 -10 .38c-10 1.45-16.16 11-16.92 16.8s.76 18.11.76 18.11l1.14 7.47 21.46 2.62v.85l3.52-.42 3.51.42v-.85l21.45-2.57 1.26-7.51s1.49-12.34.73-18.11z" fill="#280600"/><path d="m85.4 39.44s-2.79-4.64-5.87-3.58-5.68 12.7 6.58 15.77c0 0 2.61-7.33-.71-12.19z" fill="#d89b87"/><path d="m86 43.69s-2.27-5.22-4.55-4.53-1.13 2.84.95 3.84a4.47 4.47 0 0 0 0 4c1.14 1.86 4.45 2.36 4.45 2.36l.09-4.33z" fill="#cc8a79" opacity=".5"/><path d="m128.25 39.44s2.8-4.64 5.88-3.58 5.67 12.7-6.58 15.77c0 0-2.61-7.33.7-12.19z" fill="#d89b87"/><path d="m127.66 43.69s2.27-5.22 4.54-4.53 1.14 2.86-.94 3.84a4.5 4.5 0 0 1 0 4c-1.14 1.86-4.45 2.36-4.45 2.36l-.1-4.33z" fill="#cc8a79" opacity=".5"/><path d="m131.19 29.46c-.19.77-.51 2.09-.85 3.76-1.1 5.24-2.55 14-1.45 19.57 1.56 8-2 23-16.8 23.35h-10.52c-14.8-.32-18.36-15.37-16.81-23.35 1.44-7.42-1.5-20.15-2.29-23.33-.06-.8-1-14.1 2-17.55a18.86 18.86 0 0 1 3.37-3c3.57-2.56 9-4.74 17.08-4.74h3.72a38 38 0 0 1 6 .44c7.49 1.18 12 4.45 14.45 7.32 3.17 3.5 2.1 17.53 2.1 17.53z" fill="#fab29a"/><path d="m131.19 29.46c-.19.77-.51 2.09-.85 3.76-4.92-3.1-9.18-11-9.18-11-10.76 6.69-38.06 8.4-38.06 8.4l-.63-1.15c-.06-.8-1-14.1 2-17.55a18.86 18.86 0 0 1 3.37-3l26.8-4.3c7.49 1.18 12 4.45 14.45 7.32 3.17 3.49 2.1 17.52 2.1 17.52z" fill="#cc8a79" opacity=".5"/><path d="m112 46.28c0 1.25-2.35 2.27-5.25 2.27s-5.25-1-5.25-2.27 2.31-2.28 5.21-2.28 5.29 1 5.29 2.28z" fill="#e29386"/><path d="m85 24.8s1.8 15.15.85 20.66l-1.51-1s-2.07-9.46-2.64-12.03-1-5.09-1-5.09z" fill="#280600"/><path d="m128.64 24.8s-1.79 15.15-.85 20.66l1.52-1s2.08-9.46 2.69-12.03.94-5.09.94-5.09z" fill="#280600"/><path d="m133.74 17.37c-.25-2.84-5-16.07-12.87-13.7-2.1-4.45-9.24-3.67-16.11-3.54-8.31.14-17.67 3.42-22.15 9.55s-1.88 19.84-1.88 19.84c16.47-1.89 34.79-8 41.52-13.25 2 3.52 5 10.1 10.35 12.07 0 0 1.4-7.98 1.14-10.97z" fill="#280600"/><path d="m172.68 268.6c-.6 6.57-2.14 9.38-3.36 9.92a1 1 0 0 1 -.7.06 4.27 4.27 0 0 1 -3.62 2.22 1.63 1.63 0 0 1 -.82-.27 3.37 3.37 0 0 1 -.27.34 2.65 2.65 0 0 1 -2 1.18 2.5 2.5 0 0 1 -2.52-.91 4.08 4.08 0 0 1 -.68-2.63 2.12 2.12 0 0 1 -1.88.46c-2.25-.78-1.81-5-1.81-5a75.13 75.13 0 0 1 1-8.73c.81-4.34-.51-11.6-.64-12.17 0 .55-1.8 7.05-4.74 9.69s-5.3 1.06-4.52-1.32 1.05-6.87 1.83-9.75a15.49 15.49 0 0 1 3.76-6.88c2.16-2.49 4.55-4.39 6.41-8.39a12.18 12.18 0 0 0 .75-2.38c.16-.62.28-1.29.39-2l13.36.45c0 1.39-.11 2.84-.18 4.27-.1 1.84-.21 3.67-.37 5.38.49 8.86 1.07 21.25.61 26.46z" fill="#fab29a"/><path d="m172.6 232.49c0 1.39-.11 2.84-.18 4.27-4.35-.77-10.15-2-13.57-2.74.16-.62.28-1.29.39-2z" fill="#cc8a79" opacity=".5"/><path d="m162.22 264.36c-.34 3.46-2.25 13.55-2.86 16.78a4 4 0 0 1 -.68-2.63s2.41-10.92 2.86-14.42a73.66 73.66 0 0 0 .05-10 48 48 0 0 1 .63 10.27z" fill="#cc8a79" opacity=".5"/><path d="m166.85 268.28c-.23 2.46-1.11 7.94-1.88 12.52a1.63 1.63 0 0 1 -.82-.27 3.37 3.37 0 0 1 -.27.34c.75-3.89 2-10.25 2.28-12.89a85.82 85.82 0 0 0 .1-11.14 59.6 59.6 0 0 1 .59 11.44z" fill="#cc8a79" opacity=".5"/><path d="m171.13 268.68a60.79 60.79 0 0 1 -1.82 9.84 1 1 0 0 1 -.68.06s1.83-8.65 1.94-10-.29-10.62-.29-10.62a77.05 77.05 0 0 1 .85 10.72z" fill="#cc8a79" opacity=".5"/><path d="m98.49 42.11a.86.86 0 0 1 -.83-.65 3.66 3.66 0 0 0 -2-2.75 2 2 0 0 0 -1.78.42 4.48 4.48 0 0 0 -1.3 2.08.86.86 0 0 1 -1.07.55.87.87 0 0 1 -.51-1.07 6 6 0 0 1 1.86-2.88 3.62 3.62 0 0 1 3.35-.72 5.19 5.19 0 0 1 3.1 4 .85.85 0 0 1 -.63 1 .68.68 0 0 1 -.19.02z" fill="#280600"/><path d="m115.17 42.11a.84.84 0 0 0 .82-.65 3.69 3.69 0 0 1 2-2.75 1.93 1.93 0 0 1 1.77.42 4.42 4.42 0 0 1 1.24 2.08.85.85 0 1 0 1.61-.52 6 6 0 0 0 -1.85-2.88 3.63 3.63 0 0 0 -3.35-.72 5.19 5.19 0 0 0 -3.1 4 .85.85 0 0 0 .63 1 .65.65 0 0 0 .23.02z" fill="#280600"/><path d="m90.51 32.92c.59.27 1.19-.22 1.69-.52a5.75 5.75 0 0 1 4.43-.4c.69.19 1.93 1.08 2.6 1s1.34-2 1.26-2.77a5.28 5.28 0 0 0 -3.14-1.48 8.86 8.86 0 0 0 -3.92-.28 8.42 8.42 0 0 0 -3.16 1.27 1.71 1.71 0 0 0 -.59 1.66 1.9 1.9 0 0 0 .83 1.52z" fill="#280600"/><path d="m123.14 32.92c-.58.27-1.18-.22-1.68-.52a5.77 5.77 0 0 0 -4.46-.4c-.68.19-1.92 1.08-2.59 1s-1.34-2-1.26-2.77a5.28 5.28 0 0 1 3.14-1.48 8.85 8.85 0 0 1 3.92-.28 8.37 8.37 0 0 1 3.15 1.27 1.7 1.7 0 0 1 .6 1.66 1.91 1.91 0 0 1 -.82 1.52z" fill="#280600"/><path d="m96.78 55.58c.2 4.53 4.62 8.16 10 8.16s9.84-3.63 10-8.16z" fill="#fff"/></svg>