<svg xmlns="http://www.w3.org/2000/svg" xmlns:xlink="http://www.w3.org/1999/xlink" width="20" height="20" viewBox="0 0 20 20"><defs><style>.a{fill:#bebebe;}.b{clip-path:url(#a);}.c{fill:#0060ad;}</style><clipPath id="a"><rect class="a" width="20" height="20" transform="translate(322 399)"/></clipPath></defs><g class="b" transform="translate(-322 -399)"><g transform="translate(322 399)"><path class="c" d="M10,0A10,10,0,1,0,20,10,10,10,0,0,0,10,0Zm4.754,7.2-.95.95L11.87,6.213l-.733.733L13.07,8.88,8.328,13.621,6.395,11.688l-.733.733,1.933,1.933-.473.473-.009-.009a.374.374,0,0,1-.239.172l-1.8.4a.375.375,0,0,1-.447-.448l.4-1.8A.375.375,0,0,1,5.2,12.9l-.009-.009L12.82,5.263a.287.287,0,0,1,.405,0l1.528,1.528A.287.287,0,0,1,14.753,7.2Z"/></g></g></svg>