<svg xmlns="http://www.w3.org/2000/svg" xmlns:xlink="http://www.w3.org/1999/xlink" width="20" height="20" viewBox="0 0 20 20"><defs><style>.a{fill:#fff;stroke:#707070;}.b{clip-path:url(#a);}.c{fill:#212121;}</style><clipPath id="a"><rect class="a" width="20" height="20" transform="translate(414 196.5)"/></clipPath></defs><g class="b" transform="translate(-414 -196.5)"><path class="c" d="M10,13.753a2.988,2.988,0,0,1-1.842-.643L0,6.764v8.861A1.875,1.875,0,0,0,1.875,17.5h16.25A1.875,1.875,0,0,0,20,15.625V6.764L11.842,13.11A2.988,2.988,0,0,1,10,13.753ZM.636,5.676l8.288,6.447a1.752,1.752,0,0,0,2.151,0l8.288-6.447A1.648,1.648,0,0,0,20,4.375,1.875,1.875,0,0,0,18.125,2.5H1.875A1.875,1.875,0,0,0,0,4.375,1.648,1.648,0,0,0,.636,5.676Z" transform="translate(414 196.5)"/></g></svg>