<svg xmlns="http://www.w3.org/2000/svg" xmlns:xlink="http://www.w3.org/1999/xlink" width="48" height="48" viewBox="0 0 48 48"><defs><style>.a{fill:#f0f0f0;}.b{clip-path:url(#a);}.c,.d{fill:#0060ad;}.c{opacity:0.4;}</style><clipPath id="a"><rect class="a" width="48" height="48" transform="translate(254 347)"/></clipPath></defs><g class="b" transform="translate(-254 -347)"><g transform="translate(254 347)"><path class="c" d="M47.914,11.25H48V37.5A4.5,4.5,0,0,1,43.5,42H4.5A4.5,4.5,0,0,1,0,37.5V11.25H.086a3.942,3.942,0,0,0,1.441,2.372L21.419,29.1a4.2,4.2,0,0,0,5.162,0L46.473,13.622A3.942,3.942,0,0,0,47.914,11.25Z"/><path class="d" d="M1.527,13.622,21.419,29.1a4.2,4.2,0,0,0,5.162,0L46.473,13.622A3.956,3.956,0,0,0,48,10.5,4.5,4.5,0,0,0,43.5,6H4.5A4.5,4.5,0,0,0,0,10.5,3.956,3.956,0,0,0,1.527,13.622Z"/></g></g></svg>