<svg xmlns="http://www.w3.org/2000/svg" xmlns:xlink="http://www.w3.org/1999/xlink" width="20" height="20" viewBox="0 0 20 20"><defs><style>.a{fill:#fff;stroke:#707070;}.b{clip-path:url(#a);}.c,.d{fill:#0060ad;}.c{opacity:0.4;}</style><clipPath id="a"><rect class="a" width="20" height="20" transform="translate(737 196.5)"/></clipPath></defs><g class="b" transform="translate(-737 -196.5)"><g transform="translate(737 198.5)"><path class="c" d="M4.658,2.861A8.789,8.789,0,0,1,10,1c3.842,0,7.2,2.61,8.892,6.468A1.6,1.6,0,0,1,19,8a1.6,1.6,0,0,1-.108.532,12.069,12.069,0,0,1-2.408,3.6l-2.545-1.994A4.446,4.446,0,0,0,14.5,8V8A4.483,4.483,0,0,0,6.983,4.683ZM10,5H9.993c-.072,0-.167.014-.258.024a1.932,1.932,0,0,1,.052,1.857L12.746,9.2A2.994,2.994,0,0,0,10,5Zm0,6A3,3,0,0,1,7.056,8.551l3.1,2.433C10.106,10.987,10.055,11,10,11Zm1.674,1.171L14,14a8.564,8.564,0,0,1-4,1c-3.842,0-7.2-2.61-8.892-6.468A1.6,1.6,0,0,1,1,8a1.6,1.6,0,0,1,.108-.532A12.472,12.472,0,0,1,2.54,5.012L5.563,7.381A4.448,4.448,0,0,0,5.5,8,4.5,4.5,0,0,0,10,12.5h0A4.471,4.471,0,0,0,11.674,12.171Z"/><path class="d" d="M19.25,16a.743.743,0,0,1-.462-.16L.287,1.34A.75.75,0,1,1,1.213.16l18.5,14.5A.75.75,0,0,1,19.25,16Z"/></g></g></svg>