<svg xmlns="http://www.w3.org/2000/svg" xmlns:xlink="http://www.w3.org/1999/xlink" width="20" height="20" viewBox="0 0 20 20"><defs><style>.a{fill:#fff;stroke:#707070;}.b{clip-path:url(#a);}.c,.d{fill:#0060ad;}.c{opacity:0.4;}</style><clipPath id="a"><rect class="a" width="20" height="20" transform="translate(737 196.5)"/></clipPath></defs><g class="b" transform="translate(-737 -196.5)"><g transform="translate(737 197.611)"><path class="c" d="M19.88,8.3C18,4.011,14.269,1.111,10,1.111S2,4.013.12,8.3A1.783,1.783,0,0,0,0,8.889a1.779,1.779,0,0,0,.12.591C2,13.766,5.731,16.667,10,16.667s8-2.9,9.88-7.187A1.783,1.783,0,0,0,20,8.889,1.78,1.78,0,0,0,19.88,8.3ZM15,8.891a5,5,0,0,1-5,5h0a5,5,0,1,1,5-5Z"/><path class="d" d="M10,5.556H9.992c-.08,0-.186.015-.286.027A2.2,2.2,0,0,1,10,6.667,2.222,2.222,0,0,1,7.778,8.889a2.2,2.2,0,0,1-1.088-.3c-.01.1-.023.213-.023.3A3.333,3.333,0,1,0,10,5.556Z"/></g></g></svg>