<svg xmlns="http://www.w3.org/2000/svg" xmlns:xlink="http://www.w3.org/1999/xlink" width="20" height="20" viewBox="0 0 20 20"><defs><style>.a{fill:#fff;stroke:#707070;}.b{clip-path:url(#a);}.c{fill:#212121;}</style><clipPath id="a"><rect class="a" width="20" height="20" transform="translate(16 319)"/></clipPath></defs><g class="b" transform="translate(-16 -319)"><g transform="translate(16 319)"><path class="c" d="M15.887,7.516V6.175h.808v-1.7h-.808V3.267h-2.02V4.479h-.889v1.7h.889V7.5a5.159,5.159,0,1,0,2.02.014Zm-1.021,8.176A3.132,3.132,0,1,1,18,12.56,3.135,3.135,0,0,1,14.865,15.692Z"/><path class="c" d="M10.306,7.384a5.153,5.153,0,1,0-6.133,5.059V14.7l-.661-.57-1.088,1.3,2.77,2.338,2.854-2.329L6.964,14.124l-.77.619V12.427A5.167,5.167,0,0,0,10.306,7.384Zm-8.27,0a3.132,3.132,0,1,1,3.132,3.132A3.135,3.135,0,0,1,2.036,7.384Z"/></g></g></svg>