<svg width="382" height="209" xmlns="http://www.w3.org/2000/svg" xmlns:xlink="http://www.w3.org/1999/xlink" xmlns:svgjs="http://svgjs.com/svgjs"><svg width="375" height="140" xmlns="http://www.w3.org/2000/svg" xmlns:xlink="http://www.w3.org/1999/xlink" xmlns:svgjs="http://svgjs.com/svgjs" viewBox="0 0.252 375 139.496" fill="#0060ad"><svg xmlns="http://www.w3.org/2000/svg" xmlns:xlink="http://www.w3.org/1999/xlink" width="375" height="140" viewBox="0.644 0 376.356 140"><path paint-order="stroke fill markers" fill-rule="evenodd" d="M2 0h375v140H2V0z"/></svg></svg><svg width="249" height="152" xmlns="http://www.w3.org/2000/svg" xmlns:xlink="http://www.w3.org/1999/xlink" xmlns:svgjs="http://svgjs.com/svgjs" viewBox="44.689 0 159.623 152" fill="#fff" opacity=".051"><svg xmlns="http://www.w3.org/2000/svg" xmlns:xlink="http://www.w3.org/1999/xlink" width="249" height="152" viewBox="0.482 0.183 248.45 236.586"><path paint-order="stroke fill markers" fill-rule="evenodd" d="M248.932 222.34C149.902 217.352 8.842 192.506 12.708.183-3.675 112.51-47.497 288.406 248.932 222.34z"/></svg></svg><svg width="372" height="137" xmlns="http://www.w3.org/2000/svg" xmlns:xlink="http://www.w3.org/1999/xlink" xmlns:svgjs="http://svgjs.com/svgjs" viewBox="55.348 0 261.304 137" fill="#fff" stroke-miterlimit="100" stroke="#000" opacity=".141" x="10"><svg xmlns="http://www.w3.org/2000/svg" xmlns:xlink="http://www.w3.org/1999/xlink" width="372" height="137" viewBox="0.249 0.889 371.018 194.522"><path paint-order="stroke fill markers" fill-rule="evenodd" d="M.25.89c52.095 86.135 204.009 247.596 371.017 153.09C280.531 221.8 17.025 228.573.25.89z"/></svg></svg><svg width="12" height="12" xmlns="http://www.w3.org/2000/svg" xmlns:xlink="http://www.w3.org/1999/xlink" xmlns:svgjs="http://svgjs.com/svgjs" fill="none" stroke-miterlimit="100" stroke="#fff" stroke-width="2" x="167" y="76"><svg xmlns="http://www.w3.org/2000/svg" xmlns:xlink="http://www.w3.org/1999/xlink" width="12" height="12" viewBox="0.409 0.383 11 11"><path paint-order="stroke fill markers" d="M5.91.383c3.04 0 5.5 2.459 5.5 5.5 0 3.042-2.46 5.5-5.5 5.5a5.495 5.495 0 0 1-5.5-5.5c0-3.041 2.458-5.5 5.5-5.5z"/></svg></svg><svg width="11" height="13" xmlns="http://www.w3.org/2000/svg" xmlns:xlink="http://www.w3.org/1999/xlink" xmlns:svgjs="http://svgjs.com/svgjs" viewBox="0.083 0 10.833 13" fill="none" stroke-miterlimit="100" stroke="#fff" stroke-width="2" x="217" y="169"><svg xmlns="http://www.w3.org/2000/svg" xmlns:xlink="http://www.w3.org/1999/xlink" width="11" height="13" viewBox="0.409 0.383 10 12"><path paint-order="stroke fill markers" d="M5.41.383c2.764 0 5 2.682 5 6s-2.236 6-5 6c-2.766 0-5-2.682-5-6s2.234-6 5-6z"/></svg></svg><svg width="13" height="12" xmlns="http://www.w3.org/2000/svg" xmlns:xlink="http://www.w3.org/1999/xlink" xmlns:svgjs="http://svgjs.com/svgjs" viewBox="0 0.042 13 11.917" fill="none" stroke-miterlimit="100" stroke="#fff" stroke-width="2" x="155" y="197"><svg xmlns="http://www.w3.org/2000/svg" xmlns:xlink="http://www.w3.org/1999/xlink" width="13" height="12" viewBox="0.409 0.383 12 11"><path paint-order="stroke fill markers" d="M6.41.383c3.317 0 6 2.459 6 5.5 0 3.042-2.683 5.5-6 5.5-3.319 0-6-2.458-6-5.5 0-3.041 2.681-5.5 6-5.5z"/></svg></svg><svg width="12" height="13" xmlns="http://www.w3.org/2000/svg" xmlns:xlink="http://www.w3.org/1999/xlink" xmlns:svgjs="http://svgjs.com/svgjs" viewBox="0.042 0 11.916 13" fill="none" stroke-miterlimit="100" stroke="#fff" stroke-width="2" x="113" y="169"><svg xmlns="http://www.w3.org/2000/svg" width="12" height="13" viewBox="0.409 0.383 11 12"><path paint-order="stroke fill markers" d="M5.91.383c3.04 0 5.5 2.682 5.5 6s-2.46 6-5.5 6c-3.042 0-5.5-2.682-5.5-6s2.458-6 5.5-6z"/></svg></svg></svg>