<svg xmlns="http://www.w3.org/2000/svg" xmlns:xlink="http://www.w3.org/1999/xlink" width="20" height="20" viewBox="0 0 20 20"><defs><style>.a{fill:#bebebe;}.b{clip-path:url(#a);}.c{fill:#0060ad;}</style><clipPath id="a"><rect class="a" width="20" height="20" transform="translate(2 2)"/></clipPath></defs><g class="b" transform="translate(-2 -2)"><path class="c" d="M19.461,8.7h0L11.3.54a1.841,1.841,0,0,0-2.6,0L.543,8.693.535,8.7A1.84,1.84,0,0,0,1.76,11.839l.057,0h.325v6A2.157,2.157,0,0,0,4.3,20H7.489a.586.586,0,0,0,.586-.586V14.707a.984.984,0,0,1,.983-.983H10.94a.984.984,0,0,1,.983.983v4.707a.586.586,0,0,0,.586.586H15.7a2.157,2.157,0,0,0,2.155-2.155v-6h.3a1.841,1.841,0,0,0,1.3-3.142Zm0,0" transform="translate(2.001 2)"/></g></svg>