<svg xmlns="http://www.w3.org/2000/svg" xmlns:xlink="http://www.w3.org/1999/xlink" width="48" height="48" viewBox="0 0 48 48"><defs><style>.a{fill:#f0f0f0;}.b{clip-path:url(#a);}.c,.d{fill:#0060ad;}.c{opacity:0.4;}</style><clipPath id="a"><rect class="a" width="48" height="48" transform="translate(254 493)"/></clipPath></defs><g class="b" transform="translate(-254 -493)"><g transform="translate(252.4 491.4)"><path class="c" d="M34.4,35.2c-1.482,8.473-4.86,14.4-8.8,14.4s-7.314-5.927-8.8-14.4Zm4-9.6a61.41,61.41,0,0,1-.345,6.4H48.711a23.469,23.469,0,0,0,0-12.8H38.056A61.41,61.41,0,0,1,38.4,25.6Zm-3.2,0a58.247,58.247,0,0,0-.356-6.4H16.356a57.722,57.722,0,0,0,0,12.8H34.844A58.247,58.247,0,0,0,35.2,25.6Zm2.434,9.6c-.87,5.307-2.483,10.058-4.8,13.287A24.056,24.056,0,0,0,47.59,35.2Zm0-19.2H47.59A24.056,24.056,0,0,0,32.83,2.713C35.151,5.942,36.764,10.693,37.634,16ZM13.566,35.2H3.61A24.056,24.056,0,0,0,18.37,48.487C16.049,45.258,14.436,40.507,13.566,35.2ZM34.4,16c-1.482-8.473-4.86-14.4-8.8-14.4S18.286,7.527,16.8,16ZM2.49,19.2a23.469,23.469,0,0,0,0,12.8H13.145a59.621,59.621,0,0,1,0-12.8ZM13.566,16c.869-5.307,2.483-10.058,4.8-13.287A24.056,24.056,0,0,0,3.61,16Z"/><path class="d" d="M47.6,16H37.644c-.869-5.307-2.483-10.058-4.8-13.287A23.98,23.98,0,0,0,25.611,1.6c3.936,0,7.314,5.927,8.8,14.4H16.815c1.482-8.473,4.86-14.4,8.8-14.4a23.98,23.98,0,0,0-7.23,1.113c-2.321,3.229-3.934,7.98-4.8,13.287H3.621A23.833,23.833,0,0,0,2.5,19.2H13.155a59.6,59.6,0,0,0,0,12.8H2.5a23.834,23.834,0,0,0,1.121,3.2h9.956c.869,5.307,2.483,10.058,4.8,13.287a23.98,23.98,0,0,0,7.23,1.113c-3.936,0-7.314-5.927-8.8-14.4H34.406c-1.482,8.473-4.86,14.4-8.8,14.4a23.98,23.98,0,0,0,7.23-1.113c2.321-3.228,3.934-7.98,4.8-13.287H47.6A23.833,23.833,0,0,0,48.721,32H38.066a61.411,61.411,0,0,0,.345-6.4,61.411,61.411,0,0,0-.345-6.4H48.721A23.833,23.833,0,0,0,47.6,16ZM34.855,32H16.366a57.722,57.722,0,0,1,0-12.8H34.855a58.247,58.247,0,0,1,.356,6.4A58.247,58.247,0,0,1,34.855,32Z"/></g></g></svg>