<svg xmlns="http://www.w3.org/2000/svg" xmlns:xlink="http://www.w3.org/1999/xlink" width="20" height="20" viewBox="0 0 20 20"><defs><style>.a{fill:#bebebe;}.b{clip-path:url(#a);}.c{fill:#707070;}</style><clipPath id="a"><rect class="a" width="20" height="20" transform="translate(37 2.374)"/></clipPath></defs><g class="b" transform="translate(-37 -2.374)"><path class="c" d="M15.9.02H4.1A4.106,4.106,0,0,0,0,4.121v6.335a4.035,4.035,0,0,0,2.9,3.88l1.981,1.981a.586.586,0,0,0,.829,0L7.529,14.5H15.9A4.106,4.106,0,0,0,20,10.4V4.121A4.106,4.106,0,0,0,15.9.02ZM5.694,8.295a.586.586,0,0,1,.586-.586H13.72a.586.586,0,0,1,0,1.172H6.28A.586.586,0,0,1,5.694,8.295ZM13.72,6.81H6.28a.586.586,0,0,1,0-1.172H13.72a.586.586,0,0,1,0,1.172Zm0,0" transform="translate(37 4.12)"/></g></svg>