<svg xmlns="http://www.w3.org/2000/svg" xmlns:xlink="http://www.w3.org/1999/xlink" width="48" height="48" viewBox="0 0 48 48"><defs><style>.a{fill:#f0f0f0;}.b{clip-path:url(#a);}.c,.d{fill:#0060ad;}.c{opacity:0.4;}</style><clipPath id="a"><rect class="a" width="48" height="48" transform="translate(74 493)"/></clipPath></defs><g class="b" transform="translate(-74 -493)"><g transform="translate(77 493)"><path class="c" d="M41.191,33.961c-1.8-1.945-5.2-4.875-5.2-14.461A14.788,14.788,0,0,0,24,4.957V3a3,3,0,0,0-6,0V4.957A14.788,14.788,0,0,0,6.012,19.5c0,9.586-3.4,12.516-5.2,14.461A2.993,2.993,0,0,0,3.012,39H38.988a2.993,2.993,0,0,0,2.2-5.039Z"/><path class="d" d="M27,42a6,6,0,0,1-12,0Z"/></g></g></svg>