<svg xmlns="http://www.w3.org/2000/svg" xmlns:xlink="http://www.w3.org/1999/xlink" width="20" height="20" viewBox="0 0 20 20"><defs><style>.a{fill:#bebebe;}.b{clip-path:url(#a);}.c{fill:#707070;}</style><clipPath id="a"><rect class="a" width="20" height="20" transform="translate(2.441 2)"/></clipPath></defs><g class="b" transform="translate(-2.441 -2)"><g transform="translate(4.604 2)"><path class="c" d="M.007,15.617A.248.248,0,0,1,.139,15.4,8.942,8.942,0,0,0,4.28,10L5.2,6.55A5.322,5.322,0,0,1,10.344,2.6H10.4c.078,0,.157.005.235.01a5.426,5.426,0,0,1,1.1.173c.107.027.2.068.306.1a5.317,5.317,0,0,1,.936.4l.006,0A5.333,5.333,0,0,1,15.5,9.307l-.924,3.453a8.878,8.878,0,0,0,.884,6.739.254.254,0,0,1-.018.291.256.256,0,0,1-.275.094L.2,15.877A.26.26,0,0,1,.007,15.617Zm0,0" transform="translate(-0.007 0)"/><path class="c" d="M4.684.533a1.056,1.056,0,0,1,.107.809l-.3,1.119-.032-.013q-.2-.091-.4-.168l-.1-.038q-.2-.071-.4-.126c-.022-.006-.043-.015-.065-.02l-.08-.018q-.18-.046-.365-.08c-.058-.011-.117-.021-.176-.03q-.165-.026-.333-.043c-.035,0-.067-.01-.1-.013L2.732.79A1.066,1.066,0,0,1,4.684.533Zm0,0" transform="translate(8.422 0)"/><path class="c" d="M7.822,19.939a1.776,1.776,0,0,1-1.314-1.82l3.364.9A1.779,1.779,0,0,1,7.822,19.939Zm0,0" transform="translate(-0.695 0)"/></g></g></svg>