<svg height="164.003" viewBox="0 0 174.872 164.003" width="174.872" xmlns="http://www.w3.org/2000/svg"><path d="m440.405 263.576-88.182 22.708a11.66 11.66 0 0 1 -14.184-8.375l-26.668-103.562a11.66 11.66 0 0 1 8.375-14.184l82.039-21.126 21 9.4 26 100.955a11.66 11.66 0 0 1 -8.38 14.184z" fill="#f2f2f2" transform="translate(-311.003 -139.037)"/><path d="m326.729 169.9a8.3 8.3 0 0 0 -5.964 10.1l26.668 103.562a8.3 8.3 0 0 0 10.1 5.964l88.182-22.708a8.3 8.3 0 0 0 5.964-10.1l-25.594-99.391-18.453-8.261z" fill="#fff" transform="translate(-317.15 -145.526)"/><path d="m588.624 149.479-13.647 3.514a3.879 3.879 0 0 1 -4.724-2.789l-2.6-10.08a.242.242 0 0 1 .333-.282l20.672 9.18a.242.242 0 0 1 -.038.456z" fill="#f2f2f2" transform="translate(-477.069 -139.545)"/><path d="m528.686 410.765-40.148 10.335a1.94 1.94 0 0 1 -.967-3.757l40.148-10.339a1.94 1.94 0 1 1 .967 3.757z" fill="#ccc" transform="translate(-424.311 -312.391)"/><path d="m541.059 423.073-47.9 12.334a1.94 1.94 0 1 1 -.967-3.757l47.9-12.334a1.94 1.94 0 0 1 .967 3.757z" fill="#ccc" transform="translate(-427.303 -320.355)"/><circle cx="47.841" cy="114.309" fill="#e6e6e6" r="6.855"/><path d="m462.657 265.7-53.32 13.726a6.007 6.007 0 0 1 -7.306-4.315l-11.175-43.411a6.007 6.007 0 0 1 4.315-7.306l53.32-13.726a6.007 6.007 0 0 1 7.306 4.315l11.174 43.408a6.007 6.007 0 0 1 -4.314 7.309z" fill="#fff" transform="translate(-362.55 -185.265)"/><path d="m462.657 265.7-53.32 13.726a6.007 6.007 0 0 1 -7.306-4.315l-11.175-43.411a6.007 6.007 0 0 1 4.315-7.306l53.32-13.726a6.007 6.007 0 0 1 7.306 4.315l11.174 43.408a6.007 6.007 0 0 1 -4.314 7.309zm-67.31-40.62a5.3 5.3 0 0 0 -3.807 6.447l11.174 43.408a5.3 5.3 0 0 0 6.447 3.807l53.32-13.726a5.3 5.3 0 0 0 3.807-6.447l-11.174-43.409a5.3 5.3 0 0 0 -6.447-3.807z" fill="#e6e6e6" transform="translate(-362.55 -185.265)"/><path d="m495.284 248.87-26.91 6.927a.964.964 0 0 1 -1.168-.607.928.928 0 0 1 .654-1.179l27.393-7.051c1.107.561.815 1.707.031 1.909z" fill="#f2f2f2" transform="translate(-412.048 -208.87)"/><path d="m498.727 262.244-26.91 6.927a.964.964 0 0 1 -1.168-.607.928.928 0 0 1 .654-1.179l27.393-7.051c1.107.561.815 1.707.031 1.909z" fill="#f2f2f2" transform="translate(-414.276 -217.524)"/><path d="m437.492 275.692-8.213 2.114a1.045 1.045 0 0 1 -1.272-.751l-2.495-9.692a1.045 1.045 0 0 1 .751-1.272l8.213-2.114a1.046 1.046 0 0 1 1.272.751l2.495 9.692a1.045 1.045 0 0 1 -.751 1.272z" fill="#e6e6e6" transform="translate(-385.076 -219.86)"/><path d="m479.595 289.684-41.07 10.572a.964.964 0 0 1 -1.168-.607.928.928 0 0 1 .654-1.179l41.553-10.7c1.106.566.815 1.712.031 1.914z" fill="#f2f2f2" transform="translate(-392.734 -235.279)"/><path d="m483.038 303.062-41.07 10.572a.964.964 0 0 1 -1.168-.607.928.928 0 0 1 .654-1.179l41.553-10.7c1.107.561.815 1.707.031 1.909z" fill="#f2f2f2" transform="translate(-394.962 -243.936)"/><path d="m486.48 316.432-41.07 10.568a.964.964 0 0 1 -1.168-.607.928.928 0 0 1 .654-1.179l41.553-10.7c1.107.569.815 1.716.031 1.918z" fill="#f2f2f2" transform="translate(-397.189 -252.586)"/><path d="m489.923 329.808-41.07 10.572a.964.964 0 0 1 -1.168-.607.928.928 0 0 1 .654-1.179l41.553-10.7c1.108.566.816 1.712.031 1.914z" fill="#f2f2f2" transform="translate(-399.417 -261.242)"/><path d="m493.365 343.179-41.07 10.572a.964.964 0 0 1 -1.168-.607.928.928 0 0 1 .654-1.179l41.553-10.7c1.107.565.815 1.712.031 1.914z" fill="#f2f2f2" transform="translate(-401.644 -269.893)"/><path d="m442.924 459.1a.711.711 0 0 1 -.45-.031h-.009l-1.867-.792a.716.716 0 1 1 .56-1.318l1.21.515 1.586-3.73a.716.716 0 0 1 .939-.379l-.01.024.01-.025a.717.717 0 0 1 .378.939l-1.866 4.386a.716.716 0 0 1 -.482.412z" fill="#fff" transform="translate(-394.576 -342.386)"/><path d="m585.18 364.95h-91.058a11.66 11.66 0 0 1 -11.647-11.65v-106.938a11.66 11.66 0 0 1 11.647-11.647h84.715l17.99 14.34v104.245a11.66 11.66 0 0 1 -11.647 11.65z" fill="#e6e6e6" transform="translate(-421.955 -200.946)"/><path d="m500.269 244.215a8.3 8.3 0 0 0 -8.294 8.294v106.941a8.3 8.3 0 0 0 8.294 8.294h91.059a8.3 8.3 0 0 0 8.294-8.294v-102.633l-15.81-12.6z" fill="#fff" transform="translate(-428.102 -207.093)"/><g fill="#ccc"><path d="m643.732 325.207h-41.458a1.94 1.94 0 0 1 0-3.879h41.458a1.94 1.94 0 1 1 0 3.879z" transform="translate(-498.218 -256.99)"/><path d="m651.732 343.754h-49.458a1.94 1.94 0 1 1 0-3.879h49.458a1.94 1.94 0 1 1 0 3.879z" transform="translate(-498.218 -268.991)"/><path d="m643.735 404.443h-41.456a1.939 1.939 0 1 0 0 3.879h41.456a1.939 1.939 0 1 0 0-3.879z" transform="translate(-498.221 -310.77)"/><path d="m651.736 422.993h-49.457a1.939 1.939 0 0 0 0 3.879h49.458a1.939 1.939 0 1 0 0-3.879z" transform="translate(-498.221 -322.773)"/><path d="m643.732 491.443h-41.458a1.94 1.94 0 0 1 0-3.879h41.458a1.94 1.94 0 1 1 0 3.879z" transform="translate(-498.218 -364.554)"/><path d="m651.732 509.99h-49.458a1.94 1.94 0 1 1 0-3.879h49.458a1.94 1.94 0 1 1 0 3.879z" transform="translate(-498.218 -376.555)"/><circle cx="86.792" cy="69.55" r="6.855"/></g><path d="m550.724 333.948a.711.711 0 0 1 -.428-.142l-.008-.006-1.611-1.232a.716.716 0 0 1 .871-1.136l1.044.8 2.466-3.217a.716.716 0 0 1 1-.133l-.015.021.016-.021a.716.716 0 0 1 .132 1l-2.9 3.782a.716.716 0 0 1 -.569.279z" fill="#fff" transform="translate(-464.611 -261.782)"/><path d="m553.2 406.642a6.855 6.855 0 0 1 -6.854 6.858 1.468 1.468 0 0 1 -.176-.007 6.855 6.855 0 1 1 7.031-6.851z" fill="#ccc" transform="translate(-458.848 -307.757)"/><circle cx="86.792" cy="128.221" fill="#ccc" r="6.855"/><path d="m772.534 250.013h-14.092a3.879 3.879 0 0 1 -3.879-3.879v-10.409a.242.242 0 0 1 .393-.19l17.729 14.045a.242.242 0 0 1 -.151.432z" fill="#ccc" transform="translate(-598.013 -201.443)"/><path d="m563.491 406.822a6.855 6.855 0 0 1 -6.854 6.858 1.469 1.469 0 0 1 -.176-.007 14.841 14.841 0 0 1 1.331-13.609 6.859 6.859 0 0 1 5.699 6.758z" fill="#ccc" transform="translate(-469.139 -307.936)"/><path d="m600.334 406.384a1.945 1.945 0 0 1 1.941-1.941h10.331a14.673 14.673 0 0 1 1.274 3.879h-11.6a1.942 1.942 0 0 1 -1.941-1.937z" fill="#ccc" transform="translate(-498.218 -310.77)"/><path d="m614.123 422.993a14.8 14.8 0 0 1 -.515 3.879h-11.329a1.939 1.939 0 0 1 0-3.879z" fill="#ccc" transform="translate(-498.221 -322.773)"/></svg>