<svg height="133" viewBox="122 237 134 133" width="134" xmlns="http://www.w3.org/2000/svg"><g fill="#0060ad"><svg height="133" opacity=".082" viewBox="0 .004 134 132.992" width="134" x="122" xmlns="http://www.w3.org/2000/svg" xmlns:xlink="http://www.w3.org/1999/xlink" y="237"><svg height="133" viewBox="0 1 133 132" width="134" xmlns="http://www.w3.org/2000/svg" xmlns:xlink="http://www.w3.org/1999/xlink"><path d="m66.5 133c-36.775 0-66.5-29.502-66.5-66s29.725-66 66.5-66 66.5 29.502 66.5 66-29.725 66-66.5 66z" fill-rule="evenodd"/></svg></svg><svg height="106" opacity=".11" viewBox="0 .005 107 105.991" width="107" x="135" xmlns="http://www.w3.org/2000/svg" xmlns:xlink="http://www.w3.org/1999/xlink" y="251"><svg height="106" viewBox="0 1 106 105" width="107" xmlns="http://www.w3.org/2000/svg" xmlns:xlink="http://www.w3.org/1999/xlink"><path d="m53 106c-29.31 0-53-23.468-53-52.5 0-29.033 23.69-52.5 53-52.5 29.309 0 53 23.467 53 52.5 0 29.032-23.691 52.5-53 52.5z" fill-rule="evenodd"/></svg></svg><svg height="79" opacity=".129" viewBox="0 .006 80 78.988" width="80" x="149" xmlns="http://www.w3.org/2000/svg" xmlns:xlink="http://www.w3.org/1999/xlink" y="264"><svg height="79" viewBox="0 1 79 78" width="80" xmlns="http://www.w3.org/2000/svg" xmlns:xlink="http://www.w3.org/1999/xlink"><path d="m39.5 79c-21.843 0-39.5-17.433-39.5-39s17.657-39 39.5-39 39.5 17.433 39.5 39-17.657 39-39.5 39z" fill-rule="evenodd"/></svg></svg><svg height="41" viewBox=".191 0 56.619 41" width="57" x="160" xmlns="http://www.w3.org/2000/svg" xmlns:xlink="http://www.w3.org/1999/xlink" y="283"><svg height="41" viewBox="1 1 55.028 39.848" width="57" xmlns="http://www.w3.org/2000/svg"><path d="m54.638 9.098-30.36 30.36a4.728 4.728 0 0 1 -3.354 1.39 4.728 4.728 0 0 1 -3.354-1.39l-15.18-15.18a4.742 4.742 0 0 1 0-6.708 4.742 4.742 0 0 1 6.708 0l11.826 11.826 27.006-27.007a4.742 4.742 0 0 1 6.708 0 4.742 4.742 0 0 1 0 6.709z" fill-rule="evenodd"/></svg></svg></g></svg>