<svg xmlns="http://www.w3.org/2000/svg" xmlns:xlink="http://www.w3.org/1999/xlink" width="14" height="14" viewBox="0 0 14 14"><defs><style>.a{fill:#bebebe;}.b{clip-path:url(#a);}.c{fill:#212121;}</style><clipPath id="a"><rect class="a" width="14" height="14" transform="translate(129 434)"/></clipPath></defs><g class="b" transform="translate(-129 -434)"><path class="c" d="M11.368,1.648A7.349,7.349,0,0,0,7.214.467a.681.681,0,0,0-.681.678V3.217a.968.968,0,0,0,.777.971A.934.934,0,0,0,8.4,3.267V2.425a5.133,5.133,0,0,1,3.463,2.38,5.074,5.074,0,0,1-.081,5.454A5.138,5.138,0,1,1,3.314,4.446a.922.922,0,0,0-.072-1.2h0a.926.926,0,0,0-1.45.121,7,7,0,1,0,9.577-1.717Zm-4.4,6.314a.7.7,0,0,0,.99-.99L5.628,4.638a.7.7,0,0,0-.99.99Z" transform="translate(128.533 433.533)"/></g></svg>